<svg width="22" height="22" viewBox="0 0 22 22" fill="none" xmlns="http://www.w3.org/2000/svg">
<path fill-rule="evenodd" clip-rule="evenodd" d="M4.18638 3.14285L3.85476 1.78357C3.59658 0.735115 2.67153 -6.19031e-05 1.61054 3.90946e-09H0.5V1.57142H1.61054C1.97355 1.56065 2.29474 1.80935 2.38175 2.16856L5.12725 13.5457L5.4126 14.7164C5.67282 15.7734 6.61035 16.5109 7.67995 16.4999H18.2378V14.9285H7.67995C7.31694 14.9393 6.99574 14.6906 6.90874 14.3314L6.8162 13.9385L18.2378 11.1964C19.0822 10.9964 19.746 10.3322 19.9576 9.47568L21.5 3.14285H4.18638ZM18.4923 9.09854C18.4209 9.38547 18.1973 9.60718 17.9139 9.67211L6.46144 12.4142L4.57198 4.71427H19.5643L18.4923 9.09854ZM4.35604 19.6428C4.35604 18.341 5.39189 17.2857 6.66967 17.2857C7.94745 17.2857 8.98329 18.341 8.98329 19.6428C8.98329 20.9446 7.94745 21.9999 6.66967 21.9999C5.39189 21.9999 4.35604 20.9446 4.35604 19.6428ZM5.89846 19.6428C5.89846 20.0767 6.24374 20.4285 6.66967 20.4285C7.09559 20.4285 7.44087 20.0767 7.44087 19.6428C7.44087 19.2089 7.09559 18.8571 6.66967 18.8571C6.24374 18.8571 5.89846 19.2089 5.89846 19.6428ZM13.7867 18.7408C14.1448 17.86 14.9884 17.2857 15.9242 17.2857C17.2019 17.2857 18.2378 18.341 18.2378 19.6428C18.2378 20.5962 17.6741 21.4557 16.8096 21.8205C15.945 22.1853 14.9499 21.9837 14.2882 21.3095C13.6265 20.6354 13.4285 19.6216 13.7867 18.7408ZM15.153 19.6428C15.153 20.0767 15.4982 20.4285 15.9242 20.4285C16.3501 20.4285 16.6954 20.0767 16.6954 19.6428C16.6954 19.2089 16.3501 18.8571 15.9242 18.8571C15.4982 18.8571 15.153 19.2089 15.153 19.6428Z" fill="#2A2A2A"/>
</svg>
