<svg width="22" height="21" viewBox="0 0 22 21" fill="none" xmlns="http://www.w3.org/2000/svg">
<path fill-rule="evenodd" clip-rule="evenodd" d="M8.72973 16.4595C4.18458 16.4595 0.5 12.7749 0.5 8.22973C0.5 3.68458 4.18458 0 8.72973 0C13.2749 0 16.9595 3.68458 16.9595 8.22973C16.9595 10.1957 16.2701 12.0006 15.12 13.416L21.2506 19.5467C21.5831 19.8791 21.5831 20.4182 21.2506 20.7506C20.9182 21.0831 20.3791 21.0831 20.0467 20.7506L13.916 14.62C12.5006 15.7701 10.6957 16.4595 8.72973 16.4595ZM8.72973 14.7568C12.3345 14.7568 15.2568 11.8345 15.2568 8.22973C15.2568 4.62495 12.3345 1.7027 8.72973 1.7027C5.12495 1.7027 2.2027 4.62495 2.2027 8.22973C2.2027 11.8345 5.12495 14.7568 8.72973 14.7568Z" fill="#2A2A2A"/>
</svg>
